<svg xmlns="http://www.w3.org/2000/svg" viewBox="0 0 542.01 262.9"><defs><style>.cls-1{isolation:isolate;}.cls-2{fill:#3b52a0;}.cls-3{fill:#2e3369;}.cls-4{fill:#188a37;}.cls-10,.cls-5{fill:#fff;}.cls-6{fill:#f49739;}.cls-7{mix-blend-mode:multiply;}.cls-8{fill:#cdcccc;}.cls-9{fill:#342a20;}.cls-10{font-size:48.82px;font-family:Arial-Black, Arial Black;font-weight:800;}.cls-11{letter-spacing:-0.07em;}.cls-12{letter-spacing:0.01em;}.cls-13{letter-spacing:0em;}</style></defs><g class="cls-1"><g id="Layer_2" data-name="Layer 2"><g id="Layer_1-2" data-name="Layer 1"><rect class="cls-2" x="143.52" y="141.93" width="398.49" height="115.04" rx="48.5"/><path class="cls-3" d="M106.12,41.18A106.12,106.12,0,1,0,212.24,147.3,106.12,106.12,0,0,0,106.12,41.18ZM197.45,164a92.55,92.55,0,0,1-3.87,14.54,4.62,4.62,0,0,0-3.54,8.54c-1.08,2.27-2.26,4.49-3.52,6.66l-46.64-30.61-17.3-7.39a19.13,19.13,0,0,0,1.13-2.73l17.46,7,54.64,11.34-53-17.49-18.55-2.66a18.89,18.89,0,0,0,.32-2.94l18.67,2.24L199,147.3l-55.71-3.19-18.67,2.24a18.9,18.9,0,0,0-.32-2.93l18.55-2.66,53-17.49-54.64,11.34-17.46,7a18.22,18.22,0,0,0-1.13-2.73l17.3-7.4,46.64-30.6c1.26,2.16,2.44,4.38,3.52,6.65a4.62,4.62,0,0,0,3.54,8.54,93,93,0,0,1,3.87,14.55,4.61,4.61,0,0,0,1.19,9.15c.2,2.49.33,5,.33,7.53s-.13,5-.33,7.52a4.62,4.62,0,0,0-1.19,9.16Zm-31.23,54.07a4.62,4.62,0,0,0-7.32,5.62q-3.09,2.15-6.36,4l-25.09-49.83-11.25-15a18.67,18.67,0,0,0,2.32-1.83l11.61,14.78L171.78,213C170,214.73,168.14,216.42,166.22,218.05ZM176.87,87.19a4.62,4.62,0,0,0,5.63,7.32c1.42,2.06,2.76,4.19,4,6.37L136.69,126l-15,11.25a18.67,18.67,0,0,0-1.83-2.32l14.78-11.61,37.15-41.65-41.65,37.14-11.61,14.78a18.67,18.67,0,0,0-2.32-1.83l11.25-15,25.09-49.83q3.27,1.89,6.36,4a4.62,4.62,0,0,0,7.32,5.63c1.92,1.63,3.78,3.31,5.56,5.09S175.24,85.28,176.87,87.19ZM113.65,54.77A4.62,4.62,0,0,0,122.8,56a91.47,91.47,0,0,1,14.54,3.87,4.62,4.62,0,0,0,8.54,3.54c2.28,1.08,4.49,2.26,6.66,3.51l-30.61,46.65-7.39,17.29a18,18,0,0,0-2.73-1.12l7-17.46,11.34-54.64-17.49,53L110,129.15a17.76,17.76,0,0,0-2.94-.33l2.24-18.66-3.18-55.72-3.19,55.72,2.24,18.66a17.76,17.76,0,0,0-2.93.33L99.58,110.6l-17.49-53,11.34,54.64,7,17.46a17.19,17.19,0,0,0-2.73,1.12l-7.4-17.29L59.7,66.89c2.17-1.25,4.38-2.43,6.66-3.51a4.62,4.62,0,0,0,8.53-3.54A91.87,91.87,0,0,1,89.44,56a4.62,4.62,0,0,0,9.15-1.2c2.49-.2,5-.33,7.53-.33S111.16,54.57,113.65,54.77ZM36.14,201a4.64,4.64,0,0,0-6.4-.92q-2.14-3.09-4-6.36l49.83-25.09,15-11.25a17.7,17.7,0,0,0,1.82,2.32L77.6,171.31,40.46,213c-1.77-1.77-3.46-3.63-5.09-5.55A4.63,4.63,0,0,0,36.14,201ZM24.62,181.05a4.62,4.62,0,0,0-6-2.53A92.55,92.55,0,0,1,14.79,164a4.62,4.62,0,0,0-1.2-9.16c-.2-2.48-.33-5-.33-7.52s.13-5,.33-7.53a4.62,4.62,0,0,0,1.2-9.15,93,93,0,0,1,3.87-14.55,4.62,4.62,0,0,0,3.54-8.54c1.08-2.27,2.26-4.48,3.51-6.65l46.65,30.6,17.29,7.4a18.18,18.18,0,0,0-1.12,2.73l-17.46-7L16.43,123.27l53,17.49L88,143.42a18.9,18.9,0,0,0-.33,2.93L69,144.11,13.26,147.3,69,150.48l18.66-2.24a18.89,18.89,0,0,0,.33,2.94l-18.55,2.66-53,17.49L71.07,160l17.46-7a19.09,19.09,0,0,0,1.12,2.73l-17.29,7.39L25.71,193.72c-1.25-2.17-2.43-4.39-3.51-6.66A4.63,4.63,0,0,0,24.62,181.05Zm5.12-86.54a4.62,4.62,0,0,0,5.63-7.32c1.63-1.91,3.31-3.77,5.09-5.55L77.6,123.29,92.38,134.9a17.7,17.7,0,0,0-1.82,2.32L75.54,126,25.71,100.88C27,98.7,28.31,96.57,29.74,94.51ZM46,76.55a4.62,4.62,0,0,0,7.32-5.63c2.06-1.43,4.19-2.77,6.37-4l25.09,49.83,11.25,15a18.67,18.67,0,0,0-2.32,1.83L82.11,118.78,40.46,81.64C42.24,79.86,44.1,78.18,46,76.55ZM40.46,213l41.65-37.14L93.72,161A18.67,18.67,0,0,0,96,162.86l-11.25,15L59.7,227.7c-2.18-1.26-4.31-2.6-6.37-4A4.62,4.62,0,0,0,46,218.05C44.1,216.42,42.24,214.73,40.46,213Zm58.13,26.87a4.61,4.61,0,0,0-9.15-1.19,91.9,91.9,0,0,1-14.55-3.88,4.62,4.62,0,0,0-8.53-3.53c-2.28-1.08-4.49-2.26-6.66-3.52l30.6-46.64,7.4-17.3a18.22,18.22,0,0,0,2.73,1.13l-7,17.46L82.09,237l17.49-53,2.66-18.55a18.9,18.9,0,0,0,2.93.32l-2.24,18.67,3.19,55.71,3.18-55.71-2.24-18.67a18.89,18.89,0,0,0,2.94-.32L112.66,184l17.49,53-11.34-54.64-7-17.46a19.13,19.13,0,0,0,2.73-1.13l7.39,17.3,30.61,46.64c-2.17,1.26-4.38,2.44-6.66,3.52a4.62,4.62,0,0,0-8.54,3.54,92.55,92.55,0,0,1-14.54,3.87,4.61,4.61,0,0,0-9.15,1.19c-2.49.2-5,.33-7.53.33S101.08,240,98.59,239.82ZM171.78,213l-37.15-41.65L119.85,159.7a18.67,18.67,0,0,0,1.83-2.32l15,11.25,49.83,25.09q-1.89,3.27-4,6.36a4.62,4.62,0,0,0-5.63,7.32C175.24,209.32,173.55,211.18,171.78,213Z"/><path class="cls-4" d="M197.51,186.94c-29.39-5.51-58.11-12.34-86.65-10.05.38,12.17-1.13,24.42-2.6,36.29-1.53,12.32-3.13,25.07-2.54,37.59a1,1,0,0,1,0,.18.54.54,0,0,1,.1.2c.09.3.74.65,1,.77,5.92,3.22,13.07,4.14,19.38,4.94,24.08,3.08,51.37,6.55,76.47-1.36.59-11.08-.35-22.36-1.27-33.28-.45-5.25-.91-10.68-1.19-16a160.18,160.18,0,0,1,0-18.76Z"/><path class="cls-5" d="M189.64,86.27a19.31,19.31,0,0,0,2.83-.8c-5.64-.81-11.26-1.5-16.87-2C179.76,87.81,186.8,86.87,189.64,86.27Z"/><path class="cls-5" d="M137.67,103.57c4.45-.59,8-2.54,9.56-5.38a8.68,8.68,0,0,0,.83-2,10.09,10.09,0,0,0-2.59,1.67l-.86.68a16.78,16.78,0,0,1-10,3.31h-.88a.67.67,0,0,1-.6-.68.63.63,0,0,1,.68-.6,15.49,15.49,0,0,0,10-3l.83-.65a10.17,10.17,0,0,1,3.28-2,.55.55,0,0,1,.38,0c.46-3.32-.55-7-1.54-10.69l-.2-.71-.24-1a144.24,144.24,0,0,0-31.58,4.58,26.08,26.08,0,0,0,2.51,7.07C121,100.77,129.35,104.63,137.67,103.57Zm2.38-8.23a5.22,5.22,0,0,0,2-.85.64.64,0,0,1,.89.15.66.66,0,0,1-.15.89,6.19,6.19,0,0,1-2.49,1.06.25.25,0,0,1-.12,0,.62.62,0,0,1-.62-.51A.64.64,0,0,1,140.05,95.34Z"/><path class="cls-5" d="M197.51,186.94l2.58.49c.64-10.16,2.62-21,7.5-31,7.19-14.74,19.71-25.84,31.8-36.59,4.1-3.63,8.34-7.4,12.29-11.23,3.42-3.33,6.77-6.94,8.95-11-13.07-2.14-26.33-4.8-39.64-7.29a13.44,13.44,0,0,0,8.78,4,1.28,1.28,0,0,1,0,2.56h0c-4.37-.06-8.69-2.37-12.19-6.43A45.83,45.83,0,0,0,223,99.9c2.41,3.12,6.48,7.19,12.2,8.93a.64.64,0,0,1,.42.81.63.63,0,0,1-.61.44.62.62,0,0,1-.18,0c-6.05-1.84-10.32-6.11-12.83-9.38a49.7,49.7,0,0,1-6.33-11.36c-6.3-1.15-12.61-2.25-18.91-3.22a17.42,17.42,0,0,1-6.6,2.68,27,27,0,0,1-5.33.56,15.76,15.76,0,0,1-9.51-2.79,12.36,12.36,0,0,1-1.79,6.74,11.59,11.59,0,0,1-4.4,3.66,19.87,19.87,0,0,1-6.27,2,21,21,0,0,0,8.25,10.36.64.64,0,0,1,.18.88.63.63,0,0,1-.54.3.68.68,0,0,1-.35-.11,22.38,22.38,0,0,1-8.85-11.27c-.6,0-1.2.1-1.81.1q-.42,0-.84,0a1.47,1.47,0,0,1,0,.21,8.32,8.32,0,0,0,.28,3.34,41.61,41.61,0,0,0,16.44,24.6,1.28,1.28,0,0,1-.73,2.33,1.34,1.34,0,0,1-.74-.23,44.34,44.34,0,0,1-16.67-23.16A47.17,47.17,0,0,1,145,129.7a1.27,1.27,0,0,1-1.81,0,1.3,1.3,0,0,1,0-1.82,44.43,44.43,0,0,0,12.69-29.07,20.16,20.16,0,0,1-5.36-1.8,12.43,12.43,0,0,1-1,2.43c-2,3.53-6.2,6-11.46,6.64a23.11,23.11,0,0,1-3.09.2c-8.25,0-16.14-4.23-19.87-10.91a28.76,28.76,0,0,1-2.73-7.63,118.74,118.74,0,0,0-15.8,5.79c.57,5.81,1.29,11.61,2.27,17.34,1.35,7.82,3.21,15.72,5,23.36,3.13,13.26,6.38,27,7,40.84,0,.6,0,1.2,0,1.8C139.4,174.6,168.12,181.43,197.51,186.94ZM235,97.36a4.29,4.29,0,0,1-2.34-.68,1.26,1.26,0,0,1-.39-1.76,1.27,1.27,0,0,1,1.76-.38,1.84,1.84,0,0,0,1.75.09,1.27,1.27,0,0,1,1.72.57,1.29,1.29,0,0,1-.57,1.71A4.34,4.34,0,0,1,235,97.36Zm-2.42,18.13,1.6.33a.64.64,0,0,1-.13,1.26h-.12l-1.6-.33a.64.64,0,1,1,.25-1.25Zm-14.75-13.71a.66.66,0,0,1,.86.29,22.62,22.62,0,0,0,11.23,10.72.65.65,0,0,1,.33.84.64.64,0,0,1-.59.39.8.8,0,0,1-.26,0,24.07,24.07,0,0,1-11.86-11.33A.63.63,0,0,1,217.83,101.78Zm-5.06,7.88a.66.66,0,0,1,.91-.13,84.09,84.09,0,0,1,7.15,6,.65.65,0,0,1,0,.91.61.61,0,0,1-.46.2.66.66,0,0,1-.44-.17,78.38,78.38,0,0,0-7-5.94A.65.65,0,0,1,212.77,109.66Zm-22.31,48.67a40.17,40.17,0,0,1-8.33.34c-.79,0-1.58,0-2.38-.06-10.21-.09-20.37,2.12-30.2,4.27h-.15a.64.64,0,0,1-.12-1.27c9.9-2.15,20.15-4.36,30.5-4.29.79,0,1.58,0,2.39.07a39.59,39.59,0,0,0,8.07-.34.64.64,0,0,1,.74.53A.63.63,0,0,1,190.46,158.33Zm-6.67-22.9a.62.62,0,0,1,.89-.09,51.86,51.86,0,0,0,7.68,5.46,16.34,16.34,0,0,0,8.8,2.24.63.63,0,0,1,.68.6.65.65,0,0,1-.6.68l-.86,0a18.37,18.37,0,0,1-8.63-2.41,52.57,52.57,0,0,1-7.87-5.6A.64.64,0,0,1,183.79,135.43ZM179,131a.65.65,0,0,1,.9-.1l1.59,1.27a.63.63,0,0,1-.39,1.14.66.66,0,0,1-.41-.14l-1.6-1.28A.62.62,0,0,1,179,131Zm-5.48-27.72a.65.65,0,0,1,.88-.17l1,.66a.62.62,0,0,1,.17.88.65.65,0,0,1-.53.28.71.71,0,0,1-.35-.1l-1-.65A.65.65,0,0,1,173.48,103.3Zm.14,9.75a.64.64,0,1,1,.85-1,3.6,3.6,0,0,0,2.14.86.64.64,0,0,1,0,1.28h0A5,5,0,0,1,173.62,113.05Zm-14.75,6.24a.68.68,0,0,1,.82.41A18,18,0,0,0,167,129a.64.64,0,0,1,.19.88.64.64,0,0,1-.88.19,19.38,19.38,0,0,1-7.82-10A.66.66,0,0,1,158.87,119.29Zm-16.16,26.89,1.6-1a.63.63,0,1,1,.65,1.09l-1.58,1a.82.82,0,0,1-.34.09.67.67,0,0,1-.55-.31A.65.65,0,0,1,142.71,146.18Zm-11.84-2.87a32.42,32.42,0,0,0,8.51-8.09.63.63,0,1,1,1,.74,33.07,33.07,0,0,1-8.84,8.41.61.61,0,0,1-.34.1.66.66,0,0,1-.54-.28A.62.62,0,0,1,130.87,143.31Zm8.35,1.38a10.22,10.22,0,0,0-2.36,2.14.63.63,0,0,1-.5.25.74.74,0,0,1-.41-.15.64.64,0,0,1-.09-.89,11.83,11.83,0,0,1,2.66-2.43.63.63,0,0,1,.88.2A.62.62,0,0,1,139.22,144.69Zm-27.46-10.08a.63.63,0,0,1-.14-1.25,7.81,7.81,0,0,0,2.65-1.19.66.66,0,0,1,.89.15.67.67,0,0,1-.15.9,9.24,9.24,0,0,1-3.11,1.38Zm1.24,4.47a.64.64,0,0,1-.6-.67.62.62,0,0,1,.66-.61,7.45,7.45,0,0,0,5.66-2.27.64.64,0,0,1,.91,0,.62.62,0,0,1,0,.89,8.8,8.8,0,0,1-6.28,2.68Zm2.81,19.08a.63.63,0,0,1,.75-.51c12.51,2.36,25.47.18,38-1.94s25.29-4.27,37.82-2.07a.65.65,0,0,1-.23,1.27c-12.31-2.18-25,0-37.37,2.05-8.74,1.48-17.68,3-26.57,3a64.47,64.47,0,0,1-11.91-1A.64.64,0,0,1,115.81,158.16Z"/><path class="cls-5" d="M149.25,83.49a43.6,43.6,0,0,1,1.7,8.43,16.42,16.42,0,0,0,12.28.47.61.61,0,0,1,.81.37.64.64,0,0,1-.37.83,17.27,17.27,0,0,1-6,1A17.51,17.51,0,0,1,151,93.32c0,.36,0,.71-.05,1.05a18.2,18.2,0,0,0,17,.31,9,9,0,0,0,3.46-2.82c1.43-2.1,1.43-5,1.32-7.69,0-.33,0-.66,0-1A217,217,0,0,0,149,82.41c0,.12.07.25.1.38Zm17.3,7.88.32-.32a.64.64,0,0,1,.9.91l-.32.32a.69.69,0,0,1-.44.18.7.7,0,0,1-.46-.18A.65.65,0,0,1,166.55,91.37Zm-7.21-.83h1.6a.65.65,0,0,1,.64.64.64.64,0,0,1-.64.64h-1.6a.64.64,0,1,1,0-1.28Z"/><path class="cls-6" d="M201,45.83A87.7,87.7,0,0,1,203,60,17.13,17.13,0,0,0,201,45.83Z"/><path class="cls-6" d="M199.16,42.72a56.56,56.56,0,0,0-6.12.55,16.92,16.92,0,0,0-8.19,3.42.67.67,0,0,1,.09.54,21.91,21.91,0,0,0-.51,8.94,6.76,6.76,0,0,0,.71,2.4,6,6,0,0,0,2.71,2.23c4,2,8.74,1.75,12.93,1.59a3,3,0,0,0,1.07-.17A87.21,87.21,0,0,0,199,43.29.62.62,0,0,1,199.16,42.72Z"/><path class="cls-6" d="M211.06,79.29a.68.68,0,0,0-.09-.17c-.88-1.94-1.8-3.93-2.83-5.81a0,0,0,0,0,0,0,43.92,43.92,0,0,1-4.72-.51c-.32,1.53-.68,3-1.1,4.46A8.47,8.47,0,0,0,211.06,79.29Z"/><path class="cls-6" d="M224.84,9.29a.64.64,0,0,1,.48.62.67.67,0,0,1-.5.62,43.91,43.91,0,0,0-6.23,1.91,24.8,24.8,0,0,1,10.21,1.31.63.63,0,0,1,.4.8.66.66,0,0,1-.82.4,23.54,23.54,0,0,0-14.75-.25.63.63,0,0,1-.78-.35.65.65,0,0,1,.28-.82A48.59,48.59,0,0,1,221.82,10a22.66,22.66,0,0,0-18.12,5.89,38.94,38.94,0,0,1,3.73,23.36l.2,0c3.64-.86,6.93-2.6,10.43-4.43,1.37-.71,2.8-1.47,4.23-2.14,5.63-2.69,10.46-3.62,14.66-2.85a47.28,47.28,0,0,0,.41-11,15.87,15.87,0,0,0-4.51-9.86c-3.59-3.33-9.4-4.42-17.29-3.29a20.81,20.81,0,0,0-8.3,2.58c-2,1.23-4,3.55-4,6.36A23.9,23.9,0,0,1,224.84,9.29Zm7.08,5.54a4.09,4.09,0,0,1,2.64,1.57.64.64,0,0,1-.12.9.63.63,0,0,1-.39.13.64.64,0,0,1-.51-.26,2.77,2.77,0,0,0-1.8-1.07.64.64,0,0,1,.18-1.27Z"/><path class="cls-6" d="M214.6,86.63a.55.55,0,0,1,0-.38c-.9-1.51-1.7-3.07-2.44-4.63a10.8,10.8,0,0,1-3.8.71,11,11,0,0,1-7-2.47A14,14,0,0,1,196.93,86l-.17.12c6.3,1,12.61,2.07,18.91,3.22C215.28,88.39,214.92,87.48,214.6,86.63Z"/><path class="cls-6" d="M257,67.18c-1.42-3.17-2.9-6.44-4-9.68-.68-1.91-1.26-3.86-1.81-5.75a67.9,67.9,0,0,0-3.07-8.91c-1.36-3-4.45-8.32-9.83-10.12-4-1.35-8.89-.62-14.85,2.21-1.38.66-2.79,1.4-4.15,2.1a48.35,48.35,0,0,1-11,4.67,44.86,44.86,0,0,1-8.18,1l0,0a18.3,18.3,0,0,1,3.72,18.88,3.24,3.24,0,0,1-1.15,1.65,3.66,3.66,0,0,1-1.84.45c-1.24,0-2.53.1-3.83.1A21.9,21.9,0,0,1,187.29,62a7,7,0,0,1-3.24-2.74,7.83,7.83,0,0,1-.89-2.85,22.91,22.91,0,0,1,.3-8.29A8.3,8.3,0,0,0,182,50.52,10.53,10.53,0,0,0,183.7,60,21.47,21.47,0,0,0,192,66.5a43.43,43.43,0,0,0,40.67-1.56,1.28,1.28,0,1,1,1.32,2.19,43.69,43.69,0,0,1-10.86,4.58,30.42,30.42,0,0,0,8.93.45,20.65,20.65,0,0,0,11.83-5.1.64.64,0,0,1,.87.94,22.08,22.08,0,0,1-12.56,5.44,29.39,29.39,0,0,1-3,.15,36.09,36.09,0,0,1-8.87-1.21,47.08,47.08,0,0,1-9.26,1c.81,1.58,1.56,3.16,2.28,4.72a62,62,0,0,0,4.4,8.39A22,22,0,0,0,221,90.3c13.31,2.49,26.57,5.15,39.64,7.29a21.53,21.53,0,0,0,1.84-4.66C264.68,84.33,260.94,76,257,67.18Zm-9.55-2.74,1.91-1.27a.64.64,0,0,1,.71,1.06l-1.91,1.27a.62.62,0,0,1-.35.12.66.66,0,0,1-.54-.28A.66.66,0,0,1,247.43,64.44Zm3.82,26.42a26.38,26.38,0,0,1-10.15,2,27.11,27.11,0,0,1-15-4.44.64.64,0,1,1,.7-1.06,26,26,0,0,0,23.94,2.33.64.64,0,0,1,.49,1.18Zm4.72-1.3-1,.32a.58.58,0,0,1-.19,0,.63.63,0,0,1-.61-.43.66.66,0,0,1,.41-.81l1-.32a.64.64,0,0,1,.39,1.22Z"/><path class="cls-6" d="M98.5,71.33a1.27,1.27,0,0,1,1.8.09c1.55,1.71,4,2.35,6.84,3a16.43,16.43,0,0,0,2,.35,19,19,0,0,0-1.44-2.85,32,32,0,0,0-2.1-2.85c-.71-.89-1.45-1.83-2.1-2.82-1.74-2.66-2.41-5.3-1.92-7.64a1.27,1.27,0,0,1,1.52-1,1.26,1.26,0,0,1,1,1.5c-.43,2.1.6,4.27,1.56,5.72.59.9,1.25,1.74,2,2.64a35,35,0,0,1,2.26,3.06c2.41,3.85,3.27,8.3,4.07,12.61.26,1.34.51,2.66.8,3.95a144.24,144.24,0,0,1,31.58-4.58,99.15,99.15,0,0,1-2.54-13.33c-.08-.65-.15-1.32-.23-2a36.88,36.88,0,0,0-2-10A36.45,36.45,0,0,0,137.21,50l-.9-1.26a108.86,108.86,0,0,1-6.53-10.58,3.59,3.59,0,0,1-.17-.34c-1.2-2.22-2.34-4.48-3.38-6.78a1.28,1.28,0,0,1,2.34-1c.15.35.32.68.49,1a23.28,23.28,0,0,1,2.1-9.86.64.64,0,1,1,1.14.59c-1.84,3.64-2.06,8-2,11.92l.27.55a15.62,15.62,0,0,1,1-4,.64.64,0,1,1,1.2.46,14.37,14.37,0,0,0-1,5.8,104.46,104.46,0,0,0,6.63,10.8l.88,1.23a38.3,38.3,0,0,1,4.62,7.68,38.29,38.29,0,0,1,2.21,10.67c.08.65.14,1.3.22,1.95A98.68,98.68,0,0,0,149,82.41a217,217,0,0,1,23.72.77c-.22-4.42-.61-8.9-1-13.26a197.82,197.82,0,0,1-1.09-23.43c0-.73.05-1.46.09-2.2a51.44,51.44,0,0,0-.08-7.95c-.73-6.43-4-12.58-6.94-18a1.28,1.28,0,0,1,2.25-1.22c.89,1.65,1.8,3.37,2.68,5.15a23.15,23.15,0,0,1,2.65-8.66.64.64,0,0,1,.87-.27.62.62,0,0,1,.25.87,21.76,21.76,0,0,0-2.59,10.54c.29.65.57,1.3.84,2l1.21-3.15a.65.65,0,0,1,.84-.36A.64.64,0,0,1,173,24l-1.59,4.15a.54.54,0,0,1-.16.21,32.76,32.76,0,0,1,1.88,7.66,53,53,0,0,1,.08,8.35c0,.72,0,1.45-.08,2.16a196,196,0,0,0,1.1,23.15c.32,3.74.65,7.6.88,11.43a21.81,21.81,0,0,0,16.22.17.64.64,0,0,1,.83.37.62.62,0,0,1-.37.81,22.76,22.76,0,0,1-8.38,1.59,23.12,23.12,0,0,1-8.24-1.55c0,.21,0,.42,0,.63a1.07,1.07,0,0,1,.35.25l0,0c5.61.53,11.23,1.22,16.87,2a11.06,11.06,0,0,0,2.93-1.53c3.28-2.49,4.48-6.91,5.48-11.65a43.48,43.48,0,0,1-10.06-3.5c-4.19-2.1-7.21-4.49-9.2-7.31a13.15,13.15,0,0,1-2-11.84c1.68-4.53,6.54-7.86,13-8.9a61.5,61.5,0,0,1,6.69-.59c1.88-.1,3.69-.22,5.46-.45a36.52,36.52,0,0,0-12.25-34A14.11,14.11,0,0,0,188,3c-4.22-1.33-8.39.84-12.8,3.14-3.18,1.66-6.48,3.38-10,3.91-3.75.55-7.45-.28-11-1.08-4-.9-7.88-1.76-11.52-.67-2.76.83-5.06,2.68-7.49,4.65a40.57,40.57,0,0,1-4.92,3.59A40.56,40.56,0,0,1,121.37,20a33.84,33.84,0,0,0-8.94,3.65c-6.79,4.42-9.18,12.48-11.7,21-.89,3-1.79,6-2.9,8.88-.27.72-.57,1.43-.87,2.15a30.52,30.52,0,0,0-2.14,6.5,31.24,31.24,0,0,0-.1,7c.07,1.07.13,2.14.21,3.22l3.15-.2A1.26,1.26,0,0,1,98.5,71.33ZM165.73,41h.64a.66.66,0,0,1,.64.64.64.64,0,0,1-.64.64h-.64a.63.63,0,0,1-.64-.64A.64.64,0,0,1,165.73,41Zm22.35,38.32h1.6a.66.66,0,0,1,.64.64.64.64,0,0,1-.64.64h-1.6a.63.63,0,0,1-.64-.64A.64.64,0,0,1,188.08,79.36Zm6.1-51.61a3.71,3.71,0,0,1,3.12-.2.64.64,0,1,1-.47,1.19,2.5,2.5,0,0,0-2,.13.71.71,0,0,1-.31.08.65.65,0,0,1-.56-.33A.64.64,0,0,1,194.18,27.75Zm-8.73,4.43,11.77-1.64a.65.65,0,0,1,.71.55.63.63,0,0,1-.55.72l-11.76,1.63h-.09a.63.63,0,0,1-.08-1.26Zm-28.59,13a8.09,8.09,0,0,0-4,1.61.63.63,0,0,1-.89-.13.62.62,0,0,1,.12-.89A9.41,9.41,0,0,1,156.71,44a.62.62,0,0,1,.72.55A.66.66,0,0,1,156.86,45.22Zm-9.79-1.44a32.78,32.78,0,0,1,14.47-4.32.64.64,0,0,1,.68.6.65.65,0,0,1-.6.68,31.64,31.64,0,0,0-13.91,4.14.65.65,0,0,1-.32.09.63.63,0,0,1-.55-.32A.62.62,0,0,1,147.07,43.78ZM130,68.93a9.32,9.32,0,0,0-5.65,2.32.55.55,0,0,1-.42.17.64.64,0,0,1-.48-.22.65.65,0,0,1,.06-.91,10.55,10.55,0,0,1,6.41-2.63.63.63,0,0,1,.68.6A.65.65,0,0,1,130,68.93Zm-9.31-4.18a52.26,52.26,0,0,1,13.24-5.57.62.62,0,0,1,.78.45.64.64,0,0,1-.44.78,50.84,50.84,0,0,0-12.92,5.44.66.66,0,0,1-.33.09.62.62,0,0,1-.55-.31A.65.65,0,0,1,120.68,64.75ZM102.09,51.91a1.29,1.29,0,0,1,1.7-.62,1.27,1.27,0,0,1,.63,1.68,3.21,3.21,0,0,0-.18,2.14,1.31,1.31,0,0,1-.92,1.56l-.32,0a1.27,1.27,0,0,1-1.24-1A5.77,5.77,0,0,1,102.09,51.91Z"/><path class="cls-6" d="M111.47,83.59c-.41-2.18-.82-4.29-1.41-6.31-.12,0-.25,0-.38,0a14.87,14.87,0,0,1-3.08-.42c-2.52-.55-6-1.31-8.19-3.75a1.33,1.33,0,0,1-.33-.87l-3.15.2c.42,7,.89,14,1.58,21.08a118.74,118.74,0,0,1,15.8-5.79C112,86.37,111.73,85,111.47,83.59Z"/><g class="cls-7"><path class="cls-8" d="M202.9,15.6c.15.29.38.55.55.84a4.19,4.19,0,0,1,.31.69s0,0,0,0a1.66,1.66,0,0,0,1.22,2h0c.39,1.8.64,3.66,1,5.1.83,3.86.51,7.37.42,11.27a3.21,3.21,0,0,0,.38,1.66,4.24,4.24,0,0,0-.59,1.38h0v0a1.76,1.76,0,0,0,.81,2l.2.07a1.23,1.23,0,0,0,2.37-.44,3.34,3.34,0,0,1,.49-1.41,3.46,3.46,0,0,0,2.65-1.64,2.65,2.65,0,0,0,.42.06,2.54,2.54,0,0,0,.39,0,2.77,2.77,0,0,1-.26.1c-.18.06-.16.38,0,.36s.65-.06,1-.11a2.85,2.85,0,0,0,.35.17c1.32.51,2.55-.3,3.47-1.31,2.21-1,4.21-2.36,6.47-3.61l.21-.11.41-.23a13.67,13.67,0,0,1,6.67-1.67,11.94,11.94,0,0,0,2.93.09,3.72,3.72,0,0,0,2.65-2.4c3.77-8.51-1.75-19.68-9.49-23.46a1.62,1.62,0,0,0-1.92.47,5.08,5.08,0,0,0-3.54.07s-.06.07,0,.09c8.37,3.63,6.28,12.64,6.1,20.05l-.14.16c-2.06,2.28-3.91,2.39-6.83,2.58-2.74.18-4.94.52-7.14-1.71a11.2,11.2,0,0,1-.93-1.06,20.15,20.15,0,0,0-2.13-6c-1.19-2.11-5-8-8-5.91a.73.73,0,0,0-.14.16h-.05a.59.59,0,0,0-.57.75C202.71,15,202.76,15.31,202.9,15.6Z"/><path class="cls-8" d="M261.89,95.61c-4.31,9.12-14.86,15.13-22.38,21.42-8,6.74-16.4,14.26-26.51,17.65-8.65,2.9-19.4.91-27.61-2.53a21.67,21.67,0,0,1-9.58-7.17,31.46,31.46,0,0,1-2.31-4.24,80.34,80.34,0,0,1,8.65-9.06c2-1.7,4.7-2.49,6.93-3.9a73.76,73.76,0,0,0,6.3-4.38c3.8-3,6.39-7.57,10.26-10.26a30.52,30.52,0,0,1,5.89-3c5.51,7.58,14.29,12.56,23.83,12.46a27.39,27.39,0,0,0,14.88-4.91c3.8-2.56,5.14-5.9,6.78-9.92.09-.22-.18-.45-.38-.38-2.73.92-5.62.94-8.45,1.58a39.79,39.79,0,0,1-11.3,1.16A19.27,19.27,0,0,1,223,83.51a55.54,55.54,0,0,0,5.78-7.83,3.42,3.42,0,0,0,.71-.07c5.54-1.15,10.94-.83,15.72-4.3,2.92-2.13,5.64-4.33,6.7-7.88a1.29,1.29,0,0,0-2.14-1.24,37.34,37.34,0,0,1-7.42,5c.16-.16.32-.31.47-.48,2.79-3,4-6.78,5.14-10.57a2.71,2.71,0,0,0-1.2-3l-.58-.42a2.92,2.92,0,0,0-3,0c-2,1.24-3.1,3.23-4.73,4.85a27.23,27.23,0,0,1-6.29,4.52c-6,3.21-12.76,4.33-19.44,4.66-13,.65-27.11-.87-32.28-14.84a.19.19,0,0,0-.36.05c-.17,10,8.11,15.61,17,18.23l-.22.13a30.91,30.91,0,0,1-11.44-5.87c-3-2.57-4.75-5.9-6.55-9.29l0-.61a92,92,0,0,1,.27-12.75c.39-4.83,2-8.79,1.24-13.68-.91-6.14,1.58-15.86-6-18.59-5.28-1.9-11.64,3.9-10.31,9.31a1.56,1.56,0,0,0,1.11,1.11,2,2,0,0,0,.64.07,4.14,4.14,0,0,0,1.25-.78,3.74,3.74,0,0,0,1.07,2.44c.5.92,1,1.82,1.52,2.73a27.7,27.7,0,0,0,.92,6.4A30.18,30.18,0,0,0,172,34.66a108.11,108.11,0,0,0,.09,11.1c.08,1.39.12,2.83.17,4.27-2.35,5.53-1,11.69-1.63,17.53s-3,18.3-11.07,16.66c-7-1.41-3.62-14.32-4.11-19.5a33.94,33.94,0,0,0-7.63-18.81c-4.55-5.75-9.14-11-12.37-17.67-1.82-3.76-4.9-7.94-9.56-5.21-4.39,2.57-2.37,9.19-.26,12.54,3.58,5.68,8.67,10.69,13,15.88,2.43,7.07,3,14.72,3.12,22.17.05,3.9-.21,9.49-3.08,12.48-2.46,2.55-7.34,4.37-10.76,4.88-8.94,1.32-11-10.76-14-16.7-1.8-3.53-4.49-6.42-6.54-9.79a20.08,20.08,0,0,1-2.49-15.42,1.32,1.32,0,0,0-2.41-1c-4.22,7.59-2.45,15.43,2.05,21.84l-.17-.11A13.73,13.73,0,0,0,98.59,68c-3-.35-4.08,3.26-3.13,5.46,1.48,3.42,4.56,5.21,8,5.83-.24.18-.49.37-.74.59a1.72,1.72,0,0,0-.27,2.09c1.94,2.75,4.92,1.75,7.5.26-1.54,7.59,2.26,16.42,7.19,21.79,3.91,4.27,8.77,6.42,13.86,8.13,2.59,1.74,4.84,3.39,5.76,6.75.85,3.11.5,5.8.22,8.94-.37,4-.5,6.6-3.35,9.72a39,39,0,0,1-9.28,7.24c-4.1,2.38-11.5,4.53-11.11,10.47.34,5.28,7.12,7.68,11.31,9,7.21,2.22,15.49,1,22.8-.12l.5-.07c.63,3.39,1.2,6.79,1.58,10.23.87,7.85,1.39,15.76,1.56,23.65a.16.16,0,0,0,.31,0c.69-7.89,1.53-15.79,2.49-23.65.47-3.79,1.09-7.55,1.73-11.31,1.33-.15,2.67-.29,4-.39,0,1-.06,2.05-.12,3a94.52,94.52,0,0,0,.32,17.4c1.5,11.67,5.35,22.66,6.71,34.34.05.48.8.51.77,0-.71-11.71,2.25-22.92,3.9-34.46.77-5.42,1.05-10.9,1.37-16.36.07-1.19.17-2.4.28-3.6,5.87.87,11.75,2.85,17.68,2.7-2.7,13.75-1.85,27.94-.18,41.83,1,8.09,2.35,16.09,3.72,24.11,1.42,8.28,4.58,18.37.9,26.42-.18.4.23,1,.67.67a9.42,9.42,0,0,0,1.55-1.38,1.64,1.64,0,0,0,1.39.45c7.57-1.48,6.11-11.35,5.61-16.91-.83-9.21-1.9-18.41-2.43-27.65A177.78,177.78,0,0,1,206.25,162a3.48,3.48,0,0,0,1.32-1.66c1.25-3,3.23-5.76,4.71-8.7,1.1-2.18,1.88-4.66,3.23-6.72,4.17-3.12,7.31-6.8,10.9-10.62,4.5-4.78,9.13-9.39,14-13.82,7.66-7,18.42-14.49,21.71-24.8C262.11,95.58,261.94,95.5,261.89,95.61ZM140.2,103.84c0,.17.08.33.13.49l-.87-.18Zm82.42-32c-3.15,0-6.28.26-9.43.2a58.91,58.91,0,0,0,10.59-1.18Zm-12.39.87a5.51,5.51,0,0,0-.77-.68c.62,0,1.24,0,1.87,0A2.48,2.48,0,0,0,210.23,72.75Zm-6.09-1.09a4.12,4.12,0,0,0-.33.4,1.78,1.78,0,0,0-1,.71,7.6,7.6,0,0,0-.65,1.24c0-.4,0-.8-.1-1.21a3.22,3.22,0,0,0-.63-1.57C202.33,71.4,203.24,71.54,204.14,71.66ZM128.72,33.07l.25,0a39.3,39.3,0,0,0,4.3,8.81c1.15,1.8,2.45,3.51,3.76,5.22a.18.18,0,0,0,0,.23c.2.44.4.87.58,1.31C134.23,43.67,130.7,38.49,128.72,33.07Zm-16.3,47.57s0,.07,0,.1a.44.44,0,0,0,0-.1Z"/></g><path class="cls-9" d="M250.22,63.35a.63.63,0,0,1-.17.88l-1.91,1.27a.62.62,0,0,1-.35.12.66.66,0,0,1-.54-.28.66.66,0,0,1,.18-.9l1.91-1.27A.62.62,0,0,1,250.22,63.35Z"/><path class="cls-9" d="M234.56,16.4a.64.64,0,0,1-.12.9.63.63,0,0,1-.39.13.64.64,0,0,1-.51-.26,2.77,2.77,0,0,0-1.8-1.07.64.64,0,0,1,.18-1.27A4.09,4.09,0,0,1,234.56,16.4Z"/><path class="cls-9" d="M197.93,31.09a.63.63,0,0,1-.55.72l-11.76,1.63h-.09a.63.63,0,0,1-.08-1.26l11.77-1.64A.65.65,0,0,1,197.93,31.09Z"/><path class="cls-9" d="M197.3,27.55a.64.64,0,1,1-.47,1.19,2.5,2.5,0,0,0-2,.13.71.71,0,0,1-.31.08.65.65,0,0,1-.56-.33.64.64,0,0,1,.26-.87A3.71,3.71,0,0,1,197.3,27.55Z"/><path class="cls-9" d="M166.37,41a.66.66,0,0,1,.64.64.64.64,0,0,1-.64.64h-.64a.63.63,0,0,1-.64-.64.64.64,0,0,1,.64-.64Z"/><path class="cls-9" d="M162.22,40.06a.65.65,0,0,1-.6.68,31.64,31.64,0,0,0-13.91,4.14.65.65,0,0,1-.32.09.63.63,0,0,1-.55-.32.62.62,0,0,1,.23-.87,32.78,32.78,0,0,1,14.47-4.32A.64.64,0,0,1,162.22,40.06Z"/><path class="cls-9" d="M157.43,44.51a.66.66,0,0,1-.57.71,8.09,8.09,0,0,0-4,1.61.63.63,0,0,1-.89-.13.62.62,0,0,1,.12-.89A9.41,9.41,0,0,1,156.71,44,.62.62,0,0,1,157.43,44.51Z"/><path class="cls-9" d="M134.7,59.63a.64.64,0,0,1-.44.78,50.84,50.84,0,0,0-12.92,5.44.66.66,0,0,1-.33.09.62.62,0,0,1-.55-.31.65.65,0,0,1,.22-.88,52.26,52.26,0,0,1,13.24-5.57A.62.62,0,0,1,134.7,59.63Z"/><path class="cls-9" d="M130.59,68.26a.64.64,0,0,1-.6.67,9.32,9.32,0,0,0-5.65,2.32.55.55,0,0,1-.42.17.64.64,0,0,1-.48-.22.65.65,0,0,1,.06-.91,10.55,10.55,0,0,1,6.41-2.63A.63.63,0,0,1,130.59,68.26Z"/><path class="cls-9" d="M259.31,66.13c4,8.84,8.07,18,5.63,27.44-1.74,6.74-6.55,12.11-11.48,16.9-4,3.88-8.26,7.66-12.37,11.31-11.92,10.58-24.24,21.53-31.2,35.81-6.11,12.53-8.33,27.47-7.22,48.46.28,5.31.74,10.73,1.19,15.95.94,11.22,1.93,22.83,1.26,34.29a1.28,1.28,0,0,1-1,1.15,1.24,1.24,0,0,1-.61.46c-11.74,3.71-23.89,5-35.93,5-14.33,0-28.52-1.81-41.77-3.5-6.54-.84-14-1.78-20.28-5.25a3.93,3.93,0,0,1-2.19-2.32,1.05,1.05,0,0,1,0-.43,1.23,1.23,0,0,1-.12-.5c-.59-12.75,1-25.6,2.55-38s3.13-25.11,2.54-37.66c-.62-13.63-3.84-27.22-7-40.36-1.81-7.68-3.69-15.62-5-23.53-2.39-13.88-3.26-28.13-4.1-41.9a32.11,32.11,0,0,1,.14-7.64,32.16,32.16,0,0,1,2.3-7c.28-.71.57-1.4.84-2.1,1.06-2.76,2-5.77,2.82-8.68,2.54-8.6,5.19-17.49,12.76-22.42a36.88,36.88,0,0,1,9.6-4A38.44,38.44,0,0,0,129,14.31a41.36,41.36,0,0,0,4.6-3.37c2.52-2,5.13-4.14,8.37-5.13,4.28-1.27,8.61-.3,12.8.63,3.51.79,6.83,1.53,10.1,1S171,5.41,174,3.85c4.69-2.44,9.53-5,14.75-3.32a16.3,16.3,0,0,1,5.37,3.16,36.54,36.54,0,0,1,7.09,8A11.44,11.44,0,0,1,205.88,6a24,24,0,0,1,9.31-2.95c8.82-1.26,15.16,0,19.4,3.94a18.35,18.35,0,0,1,5.3,11.43,49.38,49.38,0,0,1-.45,12c4.5,1.65,8.38,5.65,11,11.33A71.73,71.73,0,0,1,253.6,51c.53,1.86,1.1,3.78,1.75,5.62C256.46,59.79,257.91,63,259.31,66.13Zm3.16,26.8c2.21-8.6-1.53-16.93-5.49-25.75-1.42-3.17-2.9-6.44-4-9.68-.68-1.91-1.26-3.86-1.81-5.75a67.9,67.9,0,0,0-3.07-8.91c-1.36-3-4.45-8.32-9.83-10.12-4-1.35-8.89-.62-14.85,2.21-1.38.66-2.79,1.4-4.15,2.1a48.35,48.35,0,0,1-11,4.67,44.86,44.86,0,0,1-8.18,1l0,0a18.3,18.3,0,0,1,3.72,18.88,3.24,3.24,0,0,1-1.15,1.65,3.66,3.66,0,0,1-1.84.45c-1.24,0-2.53.1-3.83.1A21.9,21.9,0,0,1,187.29,62a7,7,0,0,1-3.24-2.74,7.83,7.83,0,0,1-.89-2.85,22.91,22.91,0,0,1,.3-8.29A8.3,8.3,0,0,0,182,50.52,10.53,10.53,0,0,0,183.7,60,21.47,21.47,0,0,0,192,66.5a43.43,43.43,0,0,0,40.67-1.56,1.28,1.28,0,1,1,1.32,2.19,43.69,43.69,0,0,1-10.86,4.58,30.42,30.42,0,0,0,8.93.45,20.65,20.65,0,0,0,11.83-5.1.64.64,0,0,1,.87.94,22.08,22.08,0,0,1-12.56,5.44,29.39,29.39,0,0,1-3,.15,36.09,36.09,0,0,1-8.87-1.21,47.08,47.08,0,0,1-9.26,1c.81,1.58,1.56,3.16,2.28,4.72a62,62,0,0,0,4.4,8.39c3.26,4.88,7.77,7.83,12.07,7.88a1.28,1.28,0,0,1,0,2.56h0c-4.37-.06-8.69-2.37-12.19-6.43A45.83,45.83,0,0,0,223,99.9c2.41,3.12,6.48,7.19,12.2,8.93a.64.64,0,0,1,.42.81.63.63,0,0,1-.61.44.62.62,0,0,1-.18,0c-6.05-1.84-10.32-6.11-12.83-9.38a54.59,54.59,0,0,1-7.4-14.05.55.55,0,0,1,0-.38c-.9-1.51-1.7-3.07-2.44-4.63a10.8,10.8,0,0,1-3.8.71,11,11,0,0,1-7-2.47A14,14,0,0,1,196.93,86a17.16,17.16,0,0,1-6.77,2.8,27,27,0,0,1-5.33.56,15.82,15.82,0,0,1-9.51-2.78,12.35,12.35,0,0,1-1.79,6.73,11.59,11.59,0,0,1-4.4,3.66,19.87,19.87,0,0,1-6.27,2,21,21,0,0,0,8.25,10.36.64.64,0,0,1,.18.88.63.63,0,0,1-.54.3.68.68,0,0,1-.35-.11,22.38,22.38,0,0,1-8.85-11.27c-.6,0-1.2.1-1.81.1q-.42,0-.84,0a1.47,1.47,0,0,1,0,.21,8.32,8.32,0,0,0,.28,3.34,41.61,41.61,0,0,0,16.44,24.6,1.28,1.28,0,0,1-.73,2.33,1.34,1.34,0,0,1-.74-.23,44.34,44.34,0,0,1-16.67-23.16A47.17,47.17,0,0,1,145,129.7a1.27,1.27,0,0,1-1.81,0,1.3,1.3,0,0,1,0-1.82,44.43,44.43,0,0,0,12.69-29.07,20.16,20.16,0,0,1-5.36-1.8,12.43,12.43,0,0,1-1,2.43c-2,3.53-6.2,6-11.46,6.64a23.11,23.11,0,0,1-3.09.2c-8.25,0-16.14-4.23-19.87-10.91-2-3.66-2.82-7.8-3.57-11.8-.41-2.18-.82-4.29-1.41-6.31-.12,0-.25,0-.38,0a14.87,14.87,0,0,1-3.08-.42c-2.52-.55-6-1.31-8.19-3.75a1.33,1.33,0,0,1-.33-.87,1.27,1.27,0,0,1,2.22-.85c1.55,1.71,4,2.35,6.84,3a16.43,16.43,0,0,0,2,.35,19,19,0,0,0-1.44-2.85,32,32,0,0,0-2.1-2.85c-.71-.89-1.45-1.83-2.1-2.82-1.74-2.66-2.41-5.3-1.92-7.64a1.27,1.27,0,0,1,1.52-1,1.26,1.26,0,0,1,1,1.5c-.43,2.1.6,4.27,1.56,5.72.59.9,1.25,1.74,2,2.64a37.21,37.21,0,0,1,2.26,3.06c2.41,3.85,3.27,8.3,4.07,12.61.76,4,1.47,7.73,3.31,11,3.69,6.63,12.07,10.49,20.39,9.43,4.45-.59,8-2.54,9.56-5.38a8.68,8.68,0,0,0,.83-2,10.09,10.09,0,0,0-2.59,1.67l-.86.68a16.78,16.78,0,0,1-10,3.31h-.88a.67.67,0,0,1-.6-.68.63.63,0,0,1,.68-.6,15.49,15.49,0,0,0,10-3l.83-.65a10.17,10.17,0,0,1,3.28-2,.55.55,0,0,1,.38,0c.46-3.32-.55-7-1.54-10.69l-.2-.71a99.23,99.23,0,0,1-2.78-14.3c-.08-.65-.15-1.32-.23-2a36.88,36.88,0,0,0-2-10A36.45,36.45,0,0,0,137.21,50l-.9-1.26a108.86,108.86,0,0,1-6.53-10.58,3.59,3.59,0,0,1-.17-.34c-1.2-2.22-2.34-4.48-3.38-6.78a1.28,1.28,0,0,1,2.34-1c.15.35.32.68.49,1a23.28,23.28,0,0,1,2.1-9.86.64.64,0,1,1,1.14.59c-1.84,3.64-2.06,8-2,11.92l.27.55a15.62,15.62,0,0,1,1-4,.64.64,0,1,1,1.2.46,14.37,14.37,0,0,0-1,5.8,104.46,104.46,0,0,0,6.63,10.8l.88,1.23a38.3,38.3,0,0,1,4.62,7.68,38.29,38.29,0,0,1,2.21,10.67c.08.65.14,1.3.22,1.95a96.72,96.72,0,0,0,2.72,13.94l.19.7a43.6,43.6,0,0,1,1.7,8.43,16.42,16.42,0,0,0,12.28.47.61.61,0,0,1,.81.37.64.64,0,0,1-.37.83,17.27,17.27,0,0,1-6,1A17.51,17.51,0,0,1,151,93.32c0,.36,0,.71-.05,1.05a18.2,18.2,0,0,0,17,.31,9,9,0,0,0,3.46-2.82c1.43-2.1,1.43-5,1.32-7.69-.21-4.74-.63-9.57-1-14.25a197.82,197.82,0,0,1-1.09-23.43c0-.73.05-1.46.09-2.2a51.44,51.44,0,0,0-.08-7.95c-.73-6.43-4-12.58-6.94-18a1.28,1.28,0,0,1,2.25-1.22c.89,1.65,1.8,3.37,2.68,5.15a23.15,23.15,0,0,1,2.65-8.66.64.64,0,0,1,.87-.27.62.62,0,0,1,.25.87,21.76,21.76,0,0,0-2.59,10.54c.29.65.57,1.3.84,2l1.21-3.15a.65.65,0,0,1,.84-.36A.64.64,0,0,1,173,24l-1.59,4.15a.54.54,0,0,1-.16.21,32.76,32.76,0,0,1,1.88,7.66,53,53,0,0,1,.08,8.35c0,.72,0,1.45-.08,2.16a196,196,0,0,0,1.1,23.15c.32,3.74.65,7.6.88,11.43a21.81,21.81,0,0,0,16.22.17.64.64,0,0,1,.83.37.62.62,0,0,1-.37.81,22.76,22.76,0,0,1-8.38,1.59,23.12,23.12,0,0,1-8.24-1.55c0,.21,0,.42,0,.63a1.07,1.07,0,0,1,.35.25c4.15,4.41,11.21,3.46,14.06,2.86a14,14,0,0,0,5.76-2.33c3.28-2.49,4.48-6.91,5.48-11.65a43.48,43.48,0,0,1-10.06-3.5c-4.19-2.1-7.21-4.49-9.2-7.31a13.15,13.15,0,0,1-2-11.84c1.68-4.53,6.54-7.86,13-8.9a61.5,61.5,0,0,1,6.69-.59c1.88-.1,3.69-.22,5.46-.45a36.52,36.52,0,0,0-12.25-34A14.11,14.11,0,0,0,188,3c-4.22-1.33-8.39.84-12.8,3.14-3.18,1.66-6.48,3.38-10,3.91-3.75.55-7.45-.28-11-1.08-4-.9-7.88-1.76-11.52-.67-2.76.83-5.06,2.68-7.49,4.65a40.57,40.57,0,0,1-4.92,3.59A40.56,40.56,0,0,1,121.37,20a33.84,33.84,0,0,0-8.94,3.65c-6.79,4.42-9.18,12.48-11.7,21-.89,3-1.79,6-2.9,8.88-.27.72-.57,1.43-.87,2.15a30.52,30.52,0,0,0-2.14,6.5,31.24,31.24,0,0,0-.1,7c.07,1.07.13,2.14.21,3.22.76,12.71,1.67,25.73,3.85,38.42,1.35,7.82,3.21,15.72,5,23.36,3.13,13.26,6.38,27,7,40.84.6,12.76-1,25.63-2.56,38.09s-3.13,25.07-2.54,37.59a1,1,0,0,1,0,.18.54.54,0,0,1,.1.2c.09.3.74.65,1,.77,5.92,3.22,13.07,4.14,19.38,4.94,24.08,3.08,51.37,6.55,76.47-1.36.59-11.08-.35-22.36-1.27-33.28-.45-5.25-.91-10.68-1.19-16-.78-14.45-.62-33.15,7.46-49.73,7.19-14.74,19.71-25.84,31.8-36.59,4.1-3.63,8.34-7.4,12.29-11.23C256.34,104.11,260.89,99.06,262.47,92.93ZM237,29.78a47.28,47.28,0,0,0,.41-11,15.87,15.87,0,0,0-4.51-9.86c-3.59-3.33-9.4-4.42-17.29-3.29a20.81,20.81,0,0,0-8.3,2.58c-2,1.23-4,3.55-4,6.36a23.9,23.9,0,0,1,21.6-5.27.64.64,0,0,1,.48.62.67.67,0,0,1-.5.62,43.91,43.91,0,0,0-6.23,1.91,24.8,24.8,0,0,1,10.21,1.31.63.63,0,0,1,.4.8.66.66,0,0,1-.82.4,23.54,23.54,0,0,0-14.75-.25.63.63,0,0,1-.78-.35.65.65,0,0,1,.28-.82A48.59,48.59,0,0,1,221.82,10a22.66,22.66,0,0,0-18.12,5.89,38.94,38.94,0,0,1,3.73,23.36l.2,0c3.64-.86,6.93-2.6,10.43-4.43,1.37-.71,2.8-1.47,4.23-2.14C227.92,29.94,232.75,29,237,29.78ZM211.06,79.29a.68.68,0,0,0-.09-.17c-.88-1.94-1.8-3.93-2.83-5.81a0,0,0,0,0,0,0,43.92,43.92,0,0,1-4.72-.51c-.32,1.53-.68,3-1.1,4.46A8.47,8.47,0,0,0,211.06,79.29ZM203,60a17.13,17.13,0,0,0-2-14.16A87.7,87.7,0,0,1,203,60Zm-2.23,2.4a3,3,0,0,0,1.07-.17A87.21,87.21,0,0,0,199,43.29a.62.62,0,0,1,.13-.57,56.56,56.56,0,0,0-6.12.55,16.92,16.92,0,0,0-8.19,3.42.67.67,0,0,1,.09.54,21.91,21.91,0,0,0-.51,8.94,6.76,6.76,0,0,0,.71,2.4,6,6,0,0,0,2.71,2.23C191.84,62.75,196.59,62.55,200.78,62.39Z"/><path class="cls-9" d="M256.38,88.75a.63.63,0,0,1-.41.81l-1,.32a.58.58,0,0,1-.19,0,.63.63,0,0,1-.61-.43.66.66,0,0,1,.41-.81l1-.32A.63.63,0,0,1,256.38,88.75Z"/><path class="cls-9" d="M251.59,90a.64.64,0,0,1-.34.84,26.38,26.38,0,0,1-10.15,2,27.11,27.11,0,0,1-15-4.44.64.64,0,1,1,.7-1.06,26,26,0,0,0,23.94,2.33A.63.63,0,0,1,251.59,90Z"/><path class="cls-9" d="M237.5,95.2a1.29,1.29,0,0,1-.57,1.71,4.34,4.34,0,0,1-1.93.45,4.29,4.29,0,0,1-2.34-.68,1.26,1.26,0,0,1-.39-1.76,1.27,1.27,0,0,1,1.76-.38,1.84,1.84,0,0,0,1.75.09A1.27,1.27,0,0,1,237.5,95.2Z"/><path class="cls-9" d="M234.18,115.82a.64.64,0,0,1-.13,1.26h-.12l-1.6-.33a.64.64,0,1,1,.25-1.25Z"/><path class="cls-9" d="M229.92,112.79a.65.65,0,0,1,.33.84.64.64,0,0,1-.59.39.8.8,0,0,1-.26,0,24.07,24.07,0,0,1-11.86-11.33.63.63,0,0,1,.29-.86.66.66,0,0,1,.86.29A22.62,22.62,0,0,0,229.92,112.79Z"/><path class="cls-9" d="M220.83,115.56a.65.65,0,0,1,0,.91.61.61,0,0,1-.46.2.66.66,0,0,1-.44-.17,78.38,78.38,0,0,0-7-5.94.65.65,0,0,1-.14-.9.66.66,0,0,1,.91-.13A84.09,84.09,0,0,1,220.83,115.56Z"/><path class="cls-9" d="M201.84,143.64a.65.65,0,0,1-.6.68l-.86,0a18.37,18.37,0,0,1-8.63-2.41,52.57,52.57,0,0,1-7.87-5.6.64.64,0,0,1-.09-.9.62.62,0,0,1,.89-.09,51.86,51.86,0,0,0,7.68,5.46,16.34,16.34,0,0,0,8.8,2.24A.63.63,0,0,1,201.84,143.64Z"/><path class="cls-9" d="M192.4,153.64a.65.65,0,0,1-.23,1.27c-12.31-2.18-25,0-37.37,2.05-8.74,1.48-17.68,3-26.57,3a64.47,64.47,0,0,1-11.91-1,.64.64,0,1,1,.24-1.25c12.51,2.36,25.47.18,38-1.94S179.87,151.44,192.4,153.64Z"/><path class="cls-9" d="M191,157.59a.63.63,0,0,1-.52.74,40.17,40.17,0,0,1-8.33.34c-.79,0-1.58,0-2.38-.06-10.21-.09-20.37,2.12-30.2,4.27h-.15a.64.64,0,0,1-.12-1.27c9.9-2.15,20.15-4.36,30.5-4.29.79,0,1.58,0,2.39.07a39.59,39.59,0,0,0,8.07-.34A.64.64,0,0,1,191,157.59Z"/><path class="cls-9" d="M189.68,79.36a.66.66,0,0,1,.64.64.64.64,0,0,1-.64.64h-1.6a.63.63,0,0,1-.64-.64.64.64,0,0,1,.64-.64Z"/><path class="cls-9" d="M181.45,132.19a.63.63,0,0,1-.39,1.14.66.66,0,0,1-.41-.14l-1.6-1.28A.62.62,0,0,1,179,131a.65.65,0,0,1,.9-.1Z"/><path class="cls-9" d="M176.61,112.94a.64.64,0,0,1,0,1.28h0a5,5,0,0,1-2.93-1.17.64.64,0,1,1,.85-1A3.6,3.6,0,0,0,176.61,112.94Z"/><path class="cls-9" d="M175.32,103.79a.62.62,0,0,1,.17.88.65.65,0,0,1-.53.28.71.71,0,0,1-.35-.1l-1-.65a.64.64,0,0,1,.71-1.07Z"/><path class="cls-9" d="M167.77,91.05a.63.63,0,0,1,0,.91l-.32.32a.69.69,0,0,1-.44.18.7.7,0,0,1-.46-.18.65.65,0,0,1,0-.91l.32-.32A.63.63,0,0,1,167.77,91.05Z"/><path class="cls-9" d="M167,129a.64.64,0,0,1,.19.88.64.64,0,0,1-.88.19,19.38,19.38,0,0,1-7.82-10,.66.66,0,0,1,.4-.82.68.68,0,0,1,.82.41A18,18,0,0,0,167,129Z"/><path class="cls-9" d="M160.94,90.54a.65.65,0,0,1,.64.64.64.64,0,0,1-.64.64h-1.6a.64.64,0,1,1,0-1.28Z"/><path class="cls-9" d="M145.18,145.43a.63.63,0,0,1-.22.88l-1.58,1a.82.82,0,0,1-.34.09.67.67,0,0,1-.55-.31.65.65,0,0,1,.22-.88l1.6-1A.63.63,0,0,1,145.18,145.43Z"/><path class="cls-9" d="M142.94,94.64a.66.66,0,0,1-.15.89,6.19,6.19,0,0,1-2.49,1.06.25.25,0,0,1-.12,0,.62.62,0,0,1-.62-.51.64.64,0,0,1,.49-.76,5.22,5.22,0,0,0,2-.85A.64.64,0,0,1,142.94,94.64Z"/><path class="cls-9" d="M140.26,135.08a.61.61,0,0,1,.14.88,33.07,33.07,0,0,1-8.84,8.41.61.61,0,0,1-.34.1.66.66,0,0,1-.54-.28.62.62,0,0,1,.19-.88,32.42,32.42,0,0,0,8.51-8.09A.61.61,0,0,1,140.26,135.08Z"/><path class="cls-9" d="M139.4,143.81a.62.62,0,0,1-.18.88,10.22,10.22,0,0,0-2.36,2.14.63.63,0,0,1-.5.25.74.74,0,0,1-.41-.15.64.64,0,0,1-.09-.89,11.83,11.83,0,0,1,2.66-2.43A.63.63,0,0,1,139.4,143.81Z"/><path class="cls-9" d="M119.63,135.52a.62.62,0,0,1,0,.89,8.8,8.8,0,0,1-6.28,2.68H113a.64.64,0,0,1-.6-.67.62.62,0,0,1,.66-.61,7.45,7.45,0,0,0,5.66-2.27A.64.64,0,0,1,119.63,135.52Z"/><path class="cls-9" d="M115.16,132.32a.67.67,0,0,1-.15.9,9.24,9.24,0,0,1-3.11,1.38h-.14a.63.63,0,0,1-.14-1.25,7.81,7.81,0,0,0,2.65-1.19A.66.66,0,0,1,115.16,132.32Z"/><path class="cls-9" d="M103.79,51.29a1.27,1.27,0,0,1,.63,1.68,3.21,3.21,0,0,0-.18,2.14,1.31,1.31,0,0,1-.92,1.56l-.32,0a1.27,1.27,0,0,1-1.24-1,5.77,5.77,0,0,1,.33-3.84A1.29,1.29,0,0,1,103.79,51.29Z"/><text class="cls-10" transform="translate(220.4 194)">BHAR<tspan class="cls-11" x="154.59" y="0">A</tspan><tspan x="189.2" y="0">T</tspan></text><text class="cls-10" transform="translate(221.43 245.1)">KI <tspan class="cls-12" x="75.95" y="0">A</tspan><tspan class="cls-13" x="114.3" y="0">WAAZ</tspan></text></g></g></g></svg>